# AST/ASF file generated using VICON BodyLanguage
# -----------------------------------------------
:version 1.10
:name VICON
:units
  mass 1.0
  length 0.45
  angle deg
:documentation
   .ast/.asf automatically generated from VICON data using
   VICON BodyBuilder and BodyLanguage model FoxedUp or BRILLIANT.MOD
:root
   order TX TY TZ RX RY RZ
   axis XYZ
   position 0 0 0  
   orientation 0 0 0 
:bonedata
  begin
     id 1 
     name lhipjoint
     direction 0.61886 -0.69539 0.365302 
     length 2.20474 
     axis 0 0 0  XYZ
  end
  begin
     id 2 
     name lfemur
     direction 0.34202 -0.939693 0  
     length 6.65149  
     axis 0 0 20  XYZ
    dof rx ry rz
    limits (-160.0 20.0)
           (-70.0 70.0)
           (-60.0 70.0)
  end
  begin
     id 3 
     name ltibia
     direction 0.34202 -0.939693 0   
     length 6.35814   
     axis 0 0 20   XYZ
    dof rx
    limits (-10.0 170.0)
  end
  begin
     id 4 
     name lfoot
     direction 0.101224 -0.278109 0.955201   
     length 2.18766   
     axis -90 7.62852e-016 20   XYZ
    dof rx rz
    limits (-45.0 90.0)
           (-70.0 20.0)
  end
  begin
     id 5 
     name ltoes
     direction 1.53524e-011 -4.21877e-011 1   
     length 1.09206   
     axis -90 7.62852e-016 20   XYZ
    dof rx
    limits (-90.0 20.0)
  end
  begin
     id 6 
     name rhipjoint
     direction -0.600207 -0.708087 0.371972   
     length 2.1652  
     axis 0 0 0  XYZ 
  end
  begin
     id 7 
     name rfemur
     direction -0.34202 -0.939693 0   
     length 6.54691   
     axis 0 0 -20   XYZ
    dof rx ry rz
    limits (-160.0 20.0)
           (-70.0 70.0)
           (-70.0 60.0)
  end
  begin
     id 8 
     name rtibia
     direction -0.34202 -0.939693 0   
     length 6.37474   
     axis 0 0 -20   XYZ
    dof rx
    limits (-10.0 170.0)
 end
 begin
     id 9 
     name rfoot
     direction -0.111266 -0.3057 0.945604   
     length 2.00903  
     axis -90 -7.62852e-016 -20   XYZ
    dof rx rz
    limits (-45.0 90.0)
           (-20.0 70.0)
  end
  begin
     id 10 
     name rtoes
     direction -1.5362e-011 -4.21913e-011 1   
     length 1.00221   
     axis -90 -7.62852e-016 -20   XYZ
    dof rx
    limits (-90.0 20.0)
  end
  begin
     id 11 
     name lowerback
     direction -0.0224561 0.999731 -0.00577314   
     length 2.10409   
     axis 0 0 0   XYZ
    dof rx ry rz
    limits (-20.0 45.0)
           (-30.0 30.0)
           (-30.0 30.0)
  end
  begin
     id 12 
     name upperback
     direction 0.0213126 0.999185 -0.0342817   
     length 2.09783   
     axis 0 0 0   XYZ
    dof rx ry rz
    limits (-20.0 45.0)
           (-30.0 30.0)
           (-30.0 30.0)
  end
  begin
     id 13 
     name thorax
     direction 0.0312356 0.999036 -0.0308451   
     length 2.09788   
     axis 0 0 0   XYZ
    dof rx ry rz
    limits (-20.0 45.0)
           (-30.0 30.0)
           (-30.0 30.0)
  end
  begin
     id 14 
     name lowerneck
     direction -0.0114419 0.996481 0.0830329   
     length 1.38575   
     axis 0 0 0   XYZ
    dof rx ry rz
    limits (-20.0 45.0)
           (-30.0 30.0)
           (-30.0 30.0)
  end
  begin
     id 15 
     name upperneck
     direction -0.0075675 0.996187 -0.0869092   
     length 1.39401   
     axis 0 0 0   XYZ
    dof rx ry rz
    limits (-20.0 45.0)
           (-30.0 30.0)
           (-30.0 30.0)
  end
  begin
     id 16
     name head
     direction -0.00222073 0.999264 -0.0382974  
     length 1.3964  
     axis 0 0 0   XYZ
    dof rx ry rz
    limits (-20.0 45.0)
           (-30.0 30.0)
           (-30.0 30.0)
  end
  begin
     id 17 
     name lclavicle
     direction 0.965962 0.222138 0.132556  
     length 2.81514  
     axis 0 0 0   XYZ
    dof ry rz
    limits (-20.0 10.0)
           (0.0 20.0)
  end
  begin
     id 18 
     name lhumerus
     direction 1 -4.48972e-011 7.03471e-018   
     length 4.47366   
     axis 180 -30 -90   XYZ
    dof rx ry rz
    limits (-60.0 90.0)
           (-90.0 90.0)
           (-90.0 90.0)
  end
  begin
     id 19
     name lradius
     direction 1 -4.48951e-011 -6.22192e-028   
     length 3.19948   
     axis 180 -30 -90   XYZ
    dof rx
    limits (-10.0 170.0)
  end
  begin
     id 20
     name lwrist
     direction 1 -4.48967e-011 -1.24264e-027   
     length 1.59974   
     axis 1.40095e-015 90 90   XYZ
    dof ry
    limits (-180.0 0.0)
 end
  begin
     id 21 
     name lhand
     direction 1 -4.4897e-011 -2.48528e-027   
     length 0.492667   
     axis 1.58582e-015 90 90   XYZ
    dof rx rz
    limits (-90.0 90.0)
           (-45.0 45.0)
  end
  begin
     id 22 
     name lfingers
     direction 1 -4.48996e-011 -4.97056e-027   
     length 0.397201   
     axis 3.17164e-015 90 90   XYZ
    dof rx
    limits (0.0 90.0)
  end
  begin
     id 23
     name lthumb
     direction 0.707107 -6.34981e-011 0.707107   
     length 0.570303   
     axis -90 45 2.85299e-015   XYZ
    dof rx rz
    limits (-45.0 45.0)
           (-45.0 45.0)
  end
  begin
     id 24 
     name rclavicle
     direction -0.961164 0.229034 0.153972   
     length 3.09348  
     axis 0 0 0   XYZ 
    dof ry rz
    limits (-10.0 20.0)
           (-20.0 0.0)
  end
  begin
     id 25 
     name rhumerus
     direction -1 -4.48971e-011 -9.06263e-028  
     length 4.3269   
     axis 180 30 90   XYZ
    dof rx ry rz
    limits (-90.0 60.0)
           (-90.0 90.0)
           (-90.0 90.0)
  end
  begin
     id 26 
     name rradius
     direction -1 -4.48953e-011 1.44659e-027   
     length 3.1896   
     axis 180 30 90   XYZ
    dof rx
    limits (-10.0 170.0)
  end
  begin
     id 27 
     name rwrist
     direction -1 -4.48988e-011 -1.24264e-027   
     length 1.5948   
     axis 1.40095e-015 -90 -90   XYZ
    dof ry
    limits (-180.0 0.0)
  end
  begin
     id 28
     name rhand
     direction -1 -4.49033e-011 -2.48528e-027   
     length 0.464496   
     axis 1.58582e-015 -90 -90   XYZ
    dof rx rz
    limits (-90.0 90.0)
           (-45.0 45.0)
  end
  begin
     id 29
     name rfingers
     direction -1 -4.48905e-011 -4.97056e-027   
     length 0.374489   
     axis 3.17164e-015 -90 -90   XYZ
    dof rx
    limits (0.0 90.0)
  end
  begin
     id 30
     name rthumb
     direction -0.707107 -6.34909e-011 0.707107   
     length 0.537693   
     axis -90 -45 -2.85299e-015   XYZ
    dof rx rz
    limits (-45.0 45.0)
           (-45.0 45.0)
  end
:hierarchy
  begin
    root lhipjoint rhipjoint lowerback
    lhipjoint lfemur
    lfemur ltibia
    ltibia lfoot
    lfoot ltoes
    rhipjoint rfemur
    rfemur rtibia
    rtibia rfoot
    rfoot rtoes
    lowerback upperback
    upperback thorax
    thorax lowerneck lclavicle rclavicle
    lowerneck upperneck
    upperneck head
    lclavicle lhumerus
    lhumerus lradius
    lradius lwrist
    lwrist lhand lthumb
    lhand lfingers
    rclavicle rhumerus
    rhumerus rradius
    rradius rwrist
    rwrist rhand rthumb
    rhand rfingers
  end

#!OML:ASF G:\acrobat\cartwheel_test 2\Patient 1\Session 2\acrobat4.ASF
:FULLY-SPECIFIED
:DEGREES
1798
root 6.94193 14.2349 -17.9835 366.413 175.369 -0.249177
lowerback -2.32763 -0.731694 -3.20668
upperback 0.63447 -0.888315 3.00014
thorax 2.05828 -0.483795 4.8675
lowerneck -8.59676 -1.4351 1.64007
upperneck 19.1494 -0.896828 -3.12334
head 7.24981 -0.292773 -1.32979
rclavicle 4.37326e-015 -1.90833e-014
rhumerus -38.1647 6.83789 -82.1764
rradius 32.9295
rwrist 6.21951
rhand -17.9032 686.531
rfingers 7.12502
rthumb 8.36379 -63.2832
lclavicle 4.37326e-015 -1.90833e-014
lhumerus -38.7049 -14.4439 91.218
lradius 40.5303
lwrist 17.6777
lhand -29.8234 -355.881
lfingers 7.12502
lthumb -3.14688 34.0754
rfemur -173.447 63.7219 577.748
rtibia -324.174
rfoot -72.8817 -30.8045
rtoes 53.5695
lfemur -386.847 2.69365 -385.034
ltibia 56.345
lfoot 144.741 -180.226
ltoes -16.4639
1799
root 6.93569 14.2417 -17.977 366.456 175.549 -0.203045
lowerback -2.31537 -0.754302 -3.26244
upperback 0.66652 -0.91827 2.97336
thorax 2.08819 -0.501253 4.86995
lowerneck -8.48673 -1.37812 1.71433
upperneck 18.8621 -0.801235 -3.39138
head 7.13718 -0.271124 -1.41844
rclavicle 1.44119e-014 -6.36111e-015
rhumerus -37.9387 6.88918 -81.8819
rradius 33.0196
rwrist 5.81374
rhand -18.06 686.233
rfingers 7.12502
rthumb 8.21239 -63.5875
lclavicle 1.44119e-014 -6.36111e-015
lhumerus -38.662 -14.4382 91.1099
lradius 40.8466
lwrist 17.8776
lhand -29.5092 -355.698
lfingers 7.12502
lthumb -2.84352 34.2623
rfemur -173.78 63.2681 577.373
rtibia -324.114
rfoot -72.4484 -30.5436
rtoes 53.6347
lfemur -386.852 2.51315 -384.982
ltibia 56.1592
lfoot 144.877 -180.623
ltoes -14.2946
1800
root 6.92933 14.2449 -17.9697 366.531 175.704 -0.361626
lowerback -2.2811 -0.776484 -3.50023
upperback 0.633172 -0.94541 2.87114
thorax 2.03975 -0.518033 4.89767
lowerneck -8.34917 -1.33239 1.74419
upperneck 18.5942 -0.722978 -3.59614
head 7.02681 -0.25315 -1.48025
rclavicle 1.32192e-014 3.81667e-014
rhumerus -37.8758 6.9497 -81.7081
rradius 33.1631
rwrist 5.2401
rhand -18.1026 685.809
rfingers 7.12502
rthumb 8.17135 -64.0132
lclavicle 1.32192e-014 3.81667e-014
lhumerus -38.7454 -14.5698 91.1123
lradius 41.0915
lwrist 18.1298
lhand -29.1045 -356.19
lfingers 7.12502
lthumb -2.45263 33.7755
rfemur -173.861 62.9176 577.005
rtibia -324.11
rfoot -71.698 -30.7892
rtoes 53.3664
lfemur -386.892 2.16816 -385.167
ltibia 56.0068
lfoot 145.046 -180.68
ltoes -13.0065
1801
root 6.92212 14.2496 -17.9612 366.585 175.856 -0.401571
lowerback -2.16908 -0.784209 -3.56454
upperback 0.58194 -0.958963 2.76265
thorax 1.9244 -0.52308 4.82151
lowerneck -8.23286 -1.3048 1.76648
upperneck 18.3975 -0.661358 -3.80205
head 6.94315 -0.241141 -1.54304
rclavicle -2.01766e-014 -5.56597e-015
rhumerus -37.8799 6.91622 -81.6332
rradius 33.3182
rwrist 4.77127
rhand -18.1561 685.388
rfingers 7.12502
rthumb 8.1197 -64.4362
lclavicle -2.01766e-014 -5.56597e-015
lhumerus -38.8801 -14.771 91.1369
lradius 41.2858
lwrist 18.2629
lhand -28.6695 -356.989
lfingers 7.12502
lthumb -2.03255 32.9816
rfemur -173.982 62.5799 576.743
rtibia -324.105
rfoot -71.0112 -30.9584
rtoes 52.5003
lfemur -386.895 2.07879 -385.205
ltibia 55.866
lfoot 145.13 -180.921
ltoes -12.69
1802
root 6.91818 14.2565 -17.9553 366.539 175.972 -0.37263
lowerback -2.01119 -0.770436 -3.60504
upperback 0.582034 -0.945245 2.67264
thorax 1.83317 -0.515362 4.75263
lowerneck -8.13895 -1.26957 1.83572
upperneck 18.1909 -0.585548 -4.07869
head 6.86042 -0.22515 -1.63537
rclavicle -4.57205e-015 -1.59028e-015
rhumerus -37.8494 6.89419 -81.6015
rradius 33.4464
rwrist 4.393
rhand -18.3371 685.461
rfingers 7.12502
rthumb 7.94496 -64.37
lclavicle -4.57205e-015 -1.59028e-015
lhumerus -38.9713 -14.9907 91.1896
lradius 41.3238
lwrist 18.2183
lhand -28.5013 -357.224
lfingers 7.12502
lthumb -1.87011 32.7477
rfemur -174.555 61.9702 576.129
rtibia -324.083
rfoot -70.6169 -30.5496
rtoes 52.2458
lfemur -386.794 2.18622 -385.143
ltibia 55.7269
lfoot 145.143 -181.346
ltoes -11.5879
1803
root 6.91736 14.2609 -17.9528 366.525 176.074 -0.423339
lowerback -2.03146 -0.768767 -3.79751
upperback 0.653209 -0.939652 2.59391
thorax 1.91931 -0.519392 4.77964
lowerneck -8.18302 -1.22597 1.81046
upperneck 18.0269 -0.502002 -4.28219
head 6.81752 -0.208555 -1.68921
rclavicle 1.51076e-014 -2.06736e-014
rhumerus -37.6562 6.66617 -81.446
rradius 33.5371
rwrist 4.43932
rhand -18.271 685.652
rfingers 7.12502
rthumb 8.00882 -64.1762
lclavicle 1.51076e-014 -2.06736e-014
lhumerus -38.8968 -15.2018 91.2558
lradius 41.2007
lwrist 18.1432
lhand -28.5762 -357.379
lfingers 7.12502
lthumb -1.94243 32.5921
rfemur -175.139 61.2166 575.407
rtibia -324.078
rfoot -70.1658 -30.116
rtoes 52.5187
lfemur -386.774 2.39456 -385.168
ltibia 55.6054
lfoot 145.21 -181.833
ltoes -10.6515
